<svg width="25" height="24" viewBox="0 0 25 24" fill="none" xmlns="http://www.w3.org/2000/svg">
<rect opacity="0.01" x="0.696777" width="24" height="24" fill="black"/>
<path fill-rule="evenodd" clip-rule="evenodd" d="M11.4668 22.9399C11.5758 22.9795 11.6909 22.9998 11.8068 22.9999C12.1394 23.0004 12.4506 22.8355 12.6368 22.5599L20.5268 10.7599C20.7341 10.4532 20.755 10.0571 20.5812 9.73024C20.4073 9.4034 20.067 9.19939 19.6968 9.19994H13.8068L14.5768 2.05994C14.6044 1.61974 14.3403 1.21345 13.9268 1.05994C13.4958 0.903374 13.0136 1.06 12.7568 1.43994L4.86682 13.2399C4.6595 13.5467 4.6386 13.9428 4.81249 14.2697C4.98638 14.5965 5.32661 14.8005 5.69682 14.7999H11.5868L10.8168 21.8899C10.7657 22.3479 11.0341 22.7815 11.4668 22.9399ZM12.6968 12.7999H7.56683L12.1468 5.93994L11.6968 10.0899C11.6654 10.3736 11.7568 10.6572 11.9478 10.8693C12.1388 11.0814 12.4114 11.2017 12.6968 11.1999H17.8268L13.2368 18.0599L13.6868 13.9099C13.7187 13.6262 13.6277 13.3423 13.4368 13.1299C13.2478 12.9205 12.979 12.8006 12.6968 12.7999Z" fill="white"/>
</svg>
