<svg width="24" height="24" viewBox="0 0 24 24" fill="none" xmlns="http://www.w3.org/2000/svg">
<path fill-rule="evenodd" clip-rule="evenodd" d="M20.9508 8.2928C20.9087 7.33639 20.754 6.67886 20.5324 6.10911C20.3039 5.50433 19.9522 4.96287 19.4916 4.51275C19.0414 4.05563 18.4964 3.70043 17.8986 3.47544C17.3256 3.25388 16.6715 3.09922 15.7151 3.05705C14.7515 3.01131 14.4456 3.00073 12.0018 3.00073C9.55794 3.00073 9.25205 3.01131 8.29207 3.05348C7.33565 3.09565 6.67813 3.25045 6.10851 3.47186C5.50359 3.70043 4.96214 4.05206 4.51202 4.51275C4.0549 4.96287 3.69983 5.5079 3.4747 6.10567C3.25315 6.67886 3.09848 7.33281 3.05632 8.28923C3.01058 9.25278 3 9.55867 3 12.0025C3 14.4464 3.01058 14.7523 3.05274 15.7122C3.09491 16.6686 3.24971 17.3262 3.47127 17.8959C3.69983 18.5007 4.0549 19.0422 4.51202 19.4923C4.96214 19.9494 5.50717 20.3046 6.10494 20.5296C6.67813 20.7512 7.33208 20.9058 8.28863 20.948C9.24848 20.9903 9.55451 21.0007 11.9984 21.0007C14.4422 21.0007 14.7481 20.9903 15.7081 20.948C16.6645 20.9058 17.322 20.7512 17.8916 20.5296C19.1013 20.0619 20.0577 19.1055 20.5254 17.8959C20.7469 17.3227 20.9017 16.6686 20.9438 15.7122C20.986 14.7523 20.9966 14.4464 20.9966 12.0025C20.9966 9.55867 20.993 9.25278 20.9508 8.2928ZM19.3299 15.6419C19.2911 16.521 19.1435 16.9957 19.0204 17.3122C18.718 18.0963 18.0956 18.7187 17.3114 19.0212C16.995 19.1442 16.5168 19.2919 15.6412 19.3305C14.6918 19.3728 14.407 19.3832 12.0054 19.3832C9.60368 19.3832 9.31537 19.3728 8.3694 19.3305C7.49032 19.2919 7.01561 19.1442 6.69914 19.0212C6.30891 18.8769 5.95371 18.6484 5.6654 18.3495C5.36651 18.0576 5.13795 17.706 4.99373 17.3157C4.87066 16.9993 4.723 16.521 4.6844 15.6455C4.6421 14.6961 4.63166 14.4112 4.63166 12.0095C4.63166 9.60785 4.6421 9.31954 4.6844 8.3737C4.723 7.49462 4.87066 7.01992 4.99373 6.70345C5.13795 6.31308 5.36651 5.95801 5.66897 5.66957C5.96072 5.37068 6.31235 5.14212 6.70271 4.99803C7.01918 4.87496 7.49746 4.7273 8.37297 4.68857C9.32238 4.6464 9.60725 4.63582 12.0088 4.63582C14.414 4.63582 14.6988 4.6464 15.6448 4.68857C16.5238 4.7273 16.9985 4.87496 17.315 4.99803C17.7052 5.14212 18.0604 5.37068 18.3487 5.66957C18.6476 5.96145 18.8762 6.31308 19.0204 6.70345C19.1435 7.01992 19.2911 7.49805 19.3299 8.3737C19.3721 9.32311 19.3826 9.60785 19.3826 12.0095C19.3826 14.4112 19.3721 14.6925 19.3299 15.6419ZM12.0018 7.37855C9.44902 7.37855 7.37782 9.44961 7.37782 12.0025C7.37782 14.5554 9.44902 16.6265 12.0018 16.6265C14.5547 16.6265 16.6257 14.5554 16.6257 12.0025C16.6257 9.44961 14.5547 7.37855 12.0018 7.37855ZM12.0018 15.002C10.3457 15.002 9.00234 13.6588 9.00234 12.0025C9.00234 10.3463 10.3457 9.00307 12.0018 9.00307C13.658 9.00307 15.0012 10.3463 15.0012 12.0025C15.0012 13.6588 13.658 15.002 12.0018 15.002ZM16.8086 8.27522C17.4048 8.27522 17.8882 7.79186 17.8882 7.19573C17.8882 6.59947 17.4048 6.11625 16.8086 6.11625C16.2124 6.11625 15.7291 6.59947 15.7291 7.19573C15.7291 7.79186 16.2124 8.27522 16.8086 8.27522Z" fill="#0068FF"/>
</svg>
