<svg width="144" height="32" viewBox="0 0 144 32" fill="none" xmlns="http://www.w3.org/2000/svg">
<path d="M40.0614 11.4545H37.701V8.44886H34.2216V11.4545H32.5064V14.0682H34.2216V20.6023C34.2053 23.0607 35.8796 24.2777 38.4034 24.1715C39.3018 24.1388 39.9389 23.9592 40.2901 23.8448L39.7429 21.2557C39.5714 21.2884 39.2038 21.37 38.8771 21.37C38.1829 21.37 37.701 21.1087 37.701 20.1449V14.0682H40.0614V11.4545ZM47.9105 24.245C51.0142 24.245 53.1051 22.734 53.5952 20.4062L50.3771 20.1939C50.0259 21.1495 49.1275 21.6477 47.9677 21.6477C46.228 21.6477 45.1254 20.4961 45.1254 18.6257V18.6175H53.6687V17.6619C53.6687 13.3984 51.0877 11.2912 47.7717 11.2912C44.0799 11.2912 41.6868 13.913 41.6868 17.7844C41.6868 21.7621 44.0472 24.245 47.9105 24.245ZM45.1254 16.4613C45.1989 15.032 46.2852 13.8885 47.8288 13.8885C49.3398 13.8885 50.3853 14.9666 50.3935 16.4613H45.1254ZM66.3775 15.032C66.0671 12.7205 64.2049 11.2912 61.0359 11.2912C57.826 11.2912 55.7106 12.7777 55.7188 15.1953C55.7106 17.0739 56.8949 18.2908 59.3452 18.7809L61.5178 19.2138C62.6122 19.4343 63.1104 19.8345 63.1268 20.4634C63.1104 21.2067 62.3018 21.7376 61.0849 21.7376C59.8434 21.7376 59.0185 21.2067 58.8061 20.1857L55.3839 20.3654C55.7106 22.7667 57.7525 24.245 61.0767 24.245C64.3274 24.245 66.6552 22.587 66.6634 20.1122C66.6552 18.299 65.4709 17.2127 63.0369 16.7145L60.7663 16.2571C59.5984 16.0039 59.1655 15.6037 59.1737 14.9993C59.1655 14.2479 60.0149 13.7578 61.093 13.7578C62.3018 13.7578 63.0206 14.4194 63.1921 15.228L66.3775 15.032ZM75.5273 11.4545H73.1668V8.44886H69.6874V11.4545H67.9722V14.0682H69.6874V20.6023C69.6711 23.0607 71.3454 24.2777 73.8692 24.1715C74.7677 24.1388 75.4047 23.9592 75.7559 23.8448L75.2087 21.2557C75.0372 21.2884 74.6697 21.37 74.343 21.37C73.6487 21.37 73.1668 21.1087 73.1668 20.1449V14.0682H75.5273V11.4545ZM77.7938 24H81.2732V11.4545H77.7938V24ZM79.5416 9.83736C80.5789 9.83736 81.4284 9.0451 81.4284 8.07315C81.4284 7.10938 80.5789 6.31712 79.5416 6.31712C78.5125 6.31712 77.6631 7.10938 77.6631 8.07315C77.6631 9.0451 78.5125 9.83736 79.5416 9.83736ZM87.6378 24.2369C89.4918 24.2369 90.6925 23.4283 91.305 22.2603H91.4031V24H94.7028V15.5384C94.7028 12.549 92.1708 11.2912 89.3775 11.2912C86.3718 11.2912 84.3952 12.7287 83.9134 15.0156L87.1314 15.277C87.3683 14.4439 88.1115 13.8313 89.3612 13.8313C90.5455 13.8313 91.2234 14.4276 91.2234 15.4567V15.5057C91.2234 16.3143 90.3658 16.4205 88.185 16.6328C85.7021 16.8615 83.4723 17.6946 83.4723 20.4961C83.4723 22.979 85.2447 24.2369 87.6378 24.2369ZM88.6342 21.8356C87.5643 21.8356 86.7965 21.3374 86.7965 20.3817C86.7965 19.4016 87.6051 18.9197 88.8303 18.7482C89.5898 18.642 90.8313 18.4624 91.2479 18.1847V19.516C91.2479 20.831 90.1616 21.8356 88.6342 21.8356ZM100.882 16.7472C100.89 15.13 101.854 14.1825 103.258 14.1825C104.655 14.1825 105.496 15.0973 105.488 16.6328V24H108.968V16.0121C108.968 13.0881 107.252 11.2912 104.639 11.2912C102.776 11.2912 101.429 12.206 100.865 13.668H100.718V11.4545H97.4022V24H100.882V16.7472ZM117.378 24.245C121.184 24.245 123.553 21.6396 123.553 17.7763C123.553 13.8885 121.184 11.2912 117.378 11.2912C113.572 11.2912 111.203 13.8885 111.203 17.7763C111.203 21.6396 113.572 24.245 117.378 24.245ZM117.394 21.5497C115.638 21.5497 114.74 19.9407 114.74 17.7518C114.74 15.5629 115.638 13.9457 117.394 13.9457C119.118 13.9457 120.016 15.5629 120.016 17.7518C120.016 19.9407 119.118 21.5497 117.394 21.5497ZM125.815 11.4545V24.5227C125.815 25.4702 125.415 25.9439 124.296 25.9439C124.149 25.9439 124.018 25.9439 123.839 25.9276V28.6474C124.108 28.6637 124.296 28.6637 124.484 28.6637C127.498 28.7454 129.295 27.4876 129.295 24.5799V11.4545H125.815ZM127.547 9.83736C128.584 9.83736 129.434 9.0451 129.434 8.07315C129.434 7.10938 128.584 6.31712 127.547 6.31712C126.518 6.31712 125.668 7.10938 125.668 8.07315C125.668 9.0451 126.518 9.83736 127.547 9.83736ZM132.082 24H135.561V16.9023C135.561 15.3587 136.688 14.2969 138.224 14.2969C138.706 14.2969 139.367 14.3786 139.694 14.4847V11.3974C139.384 11.3239 138.951 11.2749 138.6 11.2749C137.195 11.2749 136.043 12.0916 135.586 13.6435H135.455V11.4545H132.082V24Z" fill="#0068FF"/>
<g clip-path="url(#clip0)">
<rect x="-1.33325" y="15.2457" width="8.3613" height="26.0512" rx="4.18065" transform="rotate(-45 -1.33325 15.2457)" fill="#0068FF"/>
<rect width="8.3613" height="26.0512" rx="4.18065" transform="matrix(-0.707107 -0.707107 -0.707107 0.707107 23 15.2457)" fill="#17BAF7"/>
<path fill-rule="evenodd" clip-rule="evenodd" d="M10.8501 27.429L4.93774 21.5166L10.8501 15.6043L16.7624 21.5166L10.8501 27.429Z" fill="#0053CC"/>
</g>
<circle cx="10.6666" cy="5.33333" r="5.33333" fill="#22CE8B"/>
<defs>
<clipPath id="clip0">
<rect width="21.3333" height="21.3333" fill="white" transform="translate(0 10.6667)"/>
</clipPath>
</defs>
</svg>
