<svg width="132" height="88" viewBox="0 0 132 88" fill="none" xmlns="http://www.w3.org/2000/svg">
<path d="M10.0112 66.6096H7.13761V62.9505H2.90181V66.6096H0.813743V69.7914H2.90181V77.746C2.88192 80.7389 4.92028 82.2204 7.99272 82.0911C9.08647 82.0514 9.86204 81.8326 10.2896 81.6934L9.6234 78.5414C9.4146 78.5812 8.96715 78.6806 8.56942 78.6806C7.72425 78.6806 7.13761 78.3624 7.13761 77.1891V69.7914H10.0112V66.6096ZM19.5666 82.1806C23.345 82.1806 25.8904 80.3411 26.487 77.5073L22.5694 77.2488C22.1419 78.4122 21.0481 79.0187 19.6362 79.0187C17.5183 79.0187 16.176 77.6167 16.176 75.3397V75.3298H26.5765V74.1664C26.5765 68.9761 23.4345 66.4107 19.3975 66.4107C14.9032 66.4107 11.9899 69.6025 11.9899 74.3156C11.9899 79.1579 14.8635 82.1806 19.5666 82.1806ZM16.176 72.7048C16.2654 70.9647 17.5879 69.5727 19.4672 69.5727C21.3066 69.5727 22.5794 70.8852 22.5893 72.7048H16.176ZM42.0481 70.9647C41.6703 68.1508 39.4032 66.4107 35.5453 66.4107C31.6376 66.4107 29.0623 68.2204 29.0723 71.1636C29.0623 73.4505 30.5041 74.932 33.487 75.5286L36.1319 76.0556C37.4643 76.3241 38.0708 76.8113 38.0907 77.5769C38.0708 78.4818 37.0865 79.1281 35.6049 79.1281C34.0936 79.1281 33.0893 78.4818 32.8308 77.2389L28.6646 77.4576C29.0623 80.3809 31.5481 82.1806 35.595 82.1806C39.5524 82.1806 42.3862 80.1622 42.3961 77.1494C42.3862 74.942 40.9444 73.6195 37.9814 73.013L35.2172 72.4562C33.7953 72.1479 33.2683 71.6607 33.2782 70.9249C33.2683 70.0102 34.3024 69.4136 35.6149 69.4136C37.0865 69.4136 37.9615 70.219 38.1703 71.2033L42.0481 70.9647ZM53.187 66.6096H50.3134V62.9505H46.0776V66.6096H43.9895V69.7914H46.0776V77.746C46.0577 80.7389 48.0961 82.2204 51.1685 82.0911C52.2623 82.0514 53.0378 81.8326 53.4654 81.6934L52.7992 78.5414C52.5904 78.5812 52.1429 78.6806 51.7452 78.6806C50.9 78.6806 50.3134 78.3624 50.3134 77.1891V69.7914H53.187V66.6096ZM55.9462 81.8823H60.182V66.6096H55.9462V81.8823ZM58.074 64.6408C59.3368 64.6408 60.3709 63.6764 60.3709 62.4931C60.3709 61.3198 59.3368 60.3553 58.074 60.3553C56.8212 60.3553 55.7871 61.3198 55.7871 62.4931C55.7871 63.6764 56.8212 64.6408 58.074 64.6408ZM67.9302 82.1707C70.1873 82.1707 71.649 81.1863 72.3947 79.7644H72.514V81.8823H76.5311V71.5812C76.5311 67.942 73.4487 66.4107 70.0481 66.4107C66.389 66.4107 63.9828 68.1607 63.3961 70.9448L67.3137 71.263C67.6021 70.2488 68.5069 69.5031 70.0282 69.5031C71.47 69.5031 72.2953 70.2289 72.2953 71.4818V71.5414C72.2953 72.5258 71.2512 72.6551 68.5964 72.9136C65.5737 73.192 62.8592 74.2062 62.8592 77.6167C62.8592 80.6394 65.0169 82.1707 67.9302 82.1707ZM69.1433 79.2474C67.8407 79.2474 66.9061 78.6408 66.9061 77.4775C66.9061 76.2843 67.8904 75.6977 69.3819 75.4889C70.3066 75.3596 71.818 75.1408 72.3251 74.8028V76.4235C72.3251 78.0244 71.0027 79.2474 69.1433 79.2474ZM84.0531 73.0528C84.063 71.084 85.2363 69.9306 86.9466 69.9306C88.6468 69.9306 89.671 71.0443 89.661 72.9136V81.8823H93.8968V72.1579C93.8968 68.5982 91.8088 66.4107 88.627 66.4107C86.3599 66.4107 84.7193 67.5244 84.0332 69.3042H83.8542V66.6096H79.8173V81.8823H84.0531V73.0528ZM104.136 82.1806C108.769 82.1806 111.653 79.0087 111.653 74.3056C111.653 69.5727 108.769 66.4107 104.136 66.4107C99.5023 66.4107 96.6188 69.5727 96.6188 74.3056C96.6188 79.0087 99.5023 82.1806 104.136 82.1806ZM104.156 78.8994C102.018 78.8994 100.924 76.9406 100.924 74.2758C100.924 71.611 102.018 69.6423 104.156 69.6423C106.254 69.6423 107.347 71.611 107.347 74.2758C107.347 76.9406 106.254 78.8994 104.156 78.8994ZM114.407 66.6096V82.5187C114.407 83.6721 113.92 84.2488 112.558 84.2488C112.379 84.2488 112.22 84.2488 112.001 84.2289V87.54C112.329 87.5599 112.558 87.5599 112.786 87.5599C116.455 87.6593 118.643 86.1281 118.643 82.5883V66.6096H114.407ZM116.515 64.6408C117.778 64.6408 118.812 63.6764 118.812 62.4931C118.812 61.3198 117.778 60.3553 116.515 60.3553C115.262 60.3553 114.228 61.3198 114.228 62.4931C114.228 63.6764 115.262 64.6408 116.515 64.6408ZM122.036 81.8823H126.272V73.2417C126.272 71.3624 127.644 70.0698 129.513 70.0698C130.1 70.0698 130.905 70.1693 131.303 70.2985V66.54C130.925 66.4505 130.398 66.3908 129.971 66.3908C128.26 66.3908 126.858 67.3852 126.302 69.2744H126.143V66.6096H122.036V81.8823Z" fill="#0068FF"/>
<g clip-path="url(#clip0)">
<rect x="48" y="22.8684" width="12.542" height="39.0768" rx="6.27098" transform="rotate(-45 48 22.8684)" fill="#0068FF"/>
<rect width="12.542" height="39.0768" rx="6.27098" transform="matrix(-0.707107 -0.707107 -0.707107 0.707107 84.5 22.8684)" fill="#17BAF7"/>
<path fill-rule="evenodd" clip-rule="evenodd" d="M66.2752 41.1435L57.4067 32.275L66.2752 23.4065L75.1437 32.275L66.2752 41.1435Z" fill="#0053CC"/>
</g>
<circle cx="66" cy="8" r="8" fill="#22CE8B"/>
<defs>
<clipPath id="clip0">
<rect width="32" height="32" fill="white" transform="translate(50 16)"/>
</clipPath>
</defs>
</svg>
