<svg width="576" height="88" viewBox="0 0 576 88" fill="none" xmlns="http://www.w3.org/2000/svg">
<circle cx="560" cy="58.2857" r="2.28571" fill="#CCE1FF"/>
<circle cx="560" cy="71.9998" r="2.28571" fill="#CCE1FF"/>
<circle cx="560" cy="85.7142" r="2.28571" fill="#CCE1FF"/>
<circle cx="546.286" cy="58.2857" r="2.28571" fill="#CCE1FF"/>
<circle cx="546.286" cy="71.9998" r="2.28571" fill="#CCE1FF"/>
<circle cx="546.286" cy="85.7142" r="2.28571" fill="#CCE1FF"/>
<circle cx="532.571" cy="58.2857" r="2.28571" fill="#CCE1FF"/>
<circle cx="532.571" cy="71.9998" r="2.28571" fill="#CCE1FF"/>
<circle cx="532.571" cy="85.7142" r="2.28571" fill="#CCE1FF"/>
<circle cx="518.857" cy="58.2857" r="2.28571" fill="#CCE1FF"/>
<circle cx="518.857" cy="71.9998" r="2.28571" fill="#CCE1FF"/>
<circle cx="518.857" cy="85.7142" r="2.28571" fill="#CCE1FF"/>
<circle cx="505.143" cy="58.2857" r="2.28571" fill="#CCE1FF"/>
<circle cx="505.143" cy="71.9998" r="2.28571" fill="#CCE1FF"/>
<circle cx="505.143" cy="85.7142" r="2.28571" fill="#CCE1FF"/>
<circle cx="491.429" cy="71.9998" r="2.28571" fill="#CCE1FF"/>
<circle cx="491.429" cy="85.7142" r="2.28571" fill="#CCE1FF"/>
<circle cx="477.714" cy="71.9998" r="2.28571" fill="#CCE1FF"/>
<circle cx="477.714" cy="85.7142" r="2.28571" fill="#CCE1FF"/>
<circle cx="464" cy="71.9998" r="2.28571" fill="#CCE1FF"/>
<circle cx="450.286" cy="71.9998" r="2.28571" fill="#CCE1FF"/>
<circle cx="573.714" cy="58.2857" r="2.28571" fill="#CCE1FF"/>
<circle cx="573.714" cy="71.9998" r="2.28571" fill="#CCE1FF"/>
<circle cx="573.714" cy="85.7142" r="2.28571" fill="#CCE1FF"/>
<circle cx="112" cy="2.28572" r="2.28572" fill="#CCE1FF"/>
<circle cx="98.2857" cy="2.28572" r="2.28572" fill="#CCE1FF"/>
<circle cx="98.2857" cy="16.0001" r="2.28572" fill="#CCE1FF"/>
<circle cx="84.5714" cy="2.28572" r="2.28572" fill="#CCE1FF"/>
<circle cx="84.5714" cy="16.0001" r="2.28572" fill="#CCE1FF"/>
<circle cx="70.8575" cy="2.28572" r="2.28572" fill="#CCE1FF"/>
<circle cx="70.8575" cy="16.0001" r="2.28572" fill="#CCE1FF"/>
<circle cx="70.8575" cy="29.7142" r="2.28572" fill="#CCE1FF"/>
<circle cx="57.1431" cy="2.28572" r="2.28572" fill="#CCE1FF"/>
<circle cx="57.1431" cy="16.0001" r="2.28572" fill="#CCE1FF"/>
<circle cx="57.1431" cy="29.7142" r="2.28572" fill="#CCE1FF"/>
<circle cx="43.4288" cy="2.28572" r="2.28572" fill="#CCE1FF"/>
<circle cx="43.4288" cy="16.0001" r="2.28572" fill="#CCE1FF"/>
<circle cx="43.4288" cy="29.7142" r="2.28572" fill="#CCE1FF"/>
<circle cx="29.7144" cy="2.28572" r="2.28572" fill="#CCE1FF"/>
<circle cx="29.7144" cy="16.0001" r="2.28572" fill="#CCE1FF"/>
<circle cx="29.7144" cy="29.7142" r="2.28572" fill="#CCE1FF"/>
<circle cx="16.0001" cy="2.28572" r="2.28572" fill="#CCE1FF"/>
<circle cx="16.0001" cy="16.0001" r="2.28572" fill="#CCE1FF"/>
<circle cx="16.0001" cy="29.7142" r="2.28572" fill="#CCE1FF"/>
<circle cx="2.28572" cy="2.28572" r="2.28572" fill="#CCE1FF"/>
<circle cx="2.28572" cy="16.0001" r="2.28572" fill="#CCE1FF"/>
<circle cx="2.28572" cy="29.7142" r="2.28572" fill="#CCE1FF"/>
<circle cx="125.714" cy="2.28572" r="2.28572" fill="#CCE1FF"/>
</svg>
