<svg width="128" height="32" viewBox="0 0 128 32" fill="none" xmlns="http://www.w3.org/2000/svg">
<circle cx="112" cy="2.28571" r="2.28571" fill="#CCE1FF"/>
<circle cx="112" cy="15.9998" r="2.28571" fill="#CCE1FF"/>
<circle cx="112" cy="29.7142" r="2.28571" fill="#CCE1FF"/>
<circle cx="98.2857" cy="2.28571" r="2.28571" fill="#CCE1FF"/>
<circle cx="98.2857" cy="15.9998" r="2.28571" fill="#CCE1FF"/>
<circle cx="98.2857" cy="29.7142" r="2.28571" fill="#CCE1FF"/>
<circle cx="84.5714" cy="2.28571" r="2.28571" fill="#CCE1FF"/>
<circle cx="84.5714" cy="15.9998" r="2.28571" fill="#CCE1FF"/>
<circle cx="84.5714" cy="29.7142" r="2.28571" fill="#CCE1FF"/>
<circle cx="70.857" cy="2.28571" r="2.28571" fill="#CCE1FF"/>
<circle cx="70.857" cy="15.9998" r="2.28571" fill="#CCE1FF"/>
<circle cx="70.857" cy="29.7142" r="2.28571" fill="#CCE1FF"/>
<circle cx="57.1426" cy="2.28571" r="2.28571" fill="#CCE1FF"/>
<circle cx="57.1426" cy="15.9998" r="2.28571" fill="#CCE1FF"/>
<circle cx="57.1426" cy="29.7142" r="2.28571" fill="#CCE1FF"/>
<circle cx="43.4288" cy="15.9998" r="2.28571" fill="#CCE1FF"/>
<circle cx="43.4288" cy="29.7142" r="2.28571" fill="#CCE1FF"/>
<circle cx="29.7144" cy="15.9998" r="2.28571" fill="#CCE1FF"/>
<circle cx="29.7144" cy="29.7142" r="2.28571" fill="#CCE1FF"/>
<circle cx="16.0001" cy="15.9998" r="2.28571" fill="#CCE1FF"/>
<circle cx="2.28571" cy="15.9998" r="2.28571" fill="#CCE1FF"/>
<circle cx="125.714" cy="2.28571" r="2.28571" fill="#CCE1FF"/>
<circle cx="125.714" cy="15.9998" r="2.28571" fill="#CCE1FF"/>
<circle cx="125.714" cy="29.7142" r="2.28571" fill="#CCE1FF"/>
</svg>
