<svg width="64" height="64" viewBox="0 0 64 64" fill="none" xmlns="http://www.w3.org/2000/svg">
<path d="M19 16C19 8.82028 24.8203 3 32 3C39.1797 3 44.9999 8.82028 44.9999 16V26.9999H32H19V16Z" stroke="url(#paint0_linear)" stroke-width="6"/>
<path d="M8 28C8 25.7909 9.79086 24 12 24H51.9999C54.209 24 55.9999 25.7909 55.9999 28V59.9999C55.9999 62.2091 54.209 63.9999 51.9999 63.9999H12C9.79086 63.9999 8 62.2091 8 59.9999V28Z" fill="url(#paint1_linear)"/>
<path fill-rule="evenodd" clip-rule="evenodd" d="M35.0001 43.2424C36.206 42.4351 37 41.0604 37 39.5002C37 37.015 34.9853 35.0002 32.5 35.0002C30.0147 35.0002 28 37.015 28 39.5002C28 41.0605 28.7941 42.4353 30.0001 43.2425V51.9999H35.0001V43.2424Z" fill="white"/>
<defs>
<linearGradient id="paint0_linear" x1="32" y1="-5.2452e-07" x2="-0.999969" y2="46.4999" gradientUnits="userSpaceOnUse">
<stop stop-color="#0068FF"/>
<stop offset="1" stop-color="white" stop-opacity="0"/>
</linearGradient>
<linearGradient id="paint1_linear" x1="31.5" y1="28" x2="32" y2="66.4999" gradientUnits="userSpaceOnUse">
<stop stop-color="#0068FF"/>
<stop offset="1" stop-color="#C3DCFF"/>
</linearGradient>
</defs>
</svg>
