<svg width="18" height="18" viewBox="0 0 18 18" fill="none" xmlns="http://www.w3.org/2000/svg">
<path d="M9 0C4.0374 0 0 4.0374 0 9C0 13.9626 4.0374 18 9 18C13.9626 18 18 13.9626 18 9C18 4.0374 13.9626 0 9 0ZM9 16.2C5.0301 16.2 1.8 12.9699 1.8 9C1.8 5.0301 5.0301 1.8 9 1.8C12.9699 1.8 16.2 5.0301 16.2 9C16.2 12.9699 12.9699 16.2 9 16.2Z" fill="#C24F4F"/>
<path d="M5.85 9C6.59558 9 7.2 8.39558 7.2 7.65C7.2 6.90442 6.59558 6.3 5.85 6.3C5.10442 6.3 4.5 6.90442 4.5 7.65C4.5 8.39558 5.10442 9 5.85 9Z" fill="#C24F4F"/>
<path d="M12.1437 8.9874C12.8858 8.9874 13.4874 8.3858 13.4874 7.6437C13.4874 6.90159 12.8858 6.3 12.1437 6.3C11.4016 6.3 10.8 6.90159 10.8 7.6437C10.8 8.3858 11.4016 8.9874 12.1437 8.9874Z" fill="#C24F4F"/>
<path fill-rule="evenodd" clip-rule="evenodd" d="M6.93983 11.372C7.48331 11.0103 8.16751 10.8 9 10.8C9.83249 10.8 10.5167 11.0103 11.0602 11.372C11.598 11.7298 11.9454 12.2006 12.1675 12.644C12.3879 13.084 12.4936 13.513 12.5456 13.8245C12.5719 13.9823 12.5855 14.1159 12.5924 14.2134C12.5959 14.2624 12.5978 14.3027 12.5988 14.333C12.5993 14.3482 12.5996 14.3609 12.5998 14.371L12.6 14.3842L12.6 14.3892L12.6 14.3914L12.6 14.3923C12.6 14.3928 12.6 14.3932 11.7 14.3932C10.8 14.3932 10.8 14.3937 10.8 14.3941L10.8 14.3963L10.8 14.3984C10.8 14.3994 10.8 14.3999 10.8 14.4L10.7998 14.3929C10.7995 14.3838 10.7988 14.3662 10.797 14.3414C10.7934 14.2916 10.7859 14.2146 10.7701 14.1198C10.7377 13.926 10.6746 13.6813 10.5575 13.4475C10.4421 13.2172 10.2832 13.0142 10.0617 12.8668C9.84582 12.7232 9.51751 12.5966 9 12.5966C8.48248 12.5966 8.15418 12.7232 7.93829 12.8668C7.71677 13.0142 7.55785 13.2172 7.44248 13.4475C7.32535 13.6813 7.2623 13.926 7.22994 14.1198C7.21411 14.2146 7.20655 14.2916 7.20298 14.3414C7.20121 14.3662 7.20046 14.3838 7.20016 14.3929L7.19996 14.4C7.19996 14.3999 7.19997 14.3994 7.19998 14.3984L7.19999 14.3963L7.2 14.3949C7.2 14.3945 7.2 14.3932 6.3 14.3932C5.4 14.3932 5.4 14.3928 5.4 14.3923L5.4 14.3914L5.40001 14.3892L5.40004 14.3842L5.4002 14.371C5.40036 14.3609 5.40065 14.3482 5.40116 14.3331C5.40217 14.3027 5.40406 14.2624 5.40756 14.2134C5.41454 14.1159 5.42807 13.9823 5.45443 13.8245C5.50644 13.513 5.61214 13.084 5.83251 12.644C6.05465 12.2006 6.40198 11.7298 6.93983 11.372Z" fill="#C24F4F"/>
</svg>
