<svg width="18" height="18" viewBox="0 0 18 18" fill="none" xmlns="http://www.w3.org/2000/svg">
<path d="M9 0C4.0374 0 0 4.0374 0 9C0 13.9626 4.0374 18 9 18C13.9626 18 18 13.9626 18 9C18 4.0374 13.9626 0 9 0ZM9 16.2C5.0301 16.2 1.8 12.9699 1.8 9C1.8 5.0301 5.0301 1.8 9 1.8C12.9699 1.8 16.2 5.0301 16.2 9C16.2 12.9699 12.9699 16.2 9 16.2Z" fill="#1A9C69"/>
<path d="M5.85 9C6.59558 9 7.2 8.39558 7.2 7.65C7.2 6.90442 6.59558 6.3 5.85 6.3C5.10442 6.3 4.5 6.90442 4.5 7.65C4.5 8.39558 5.10442 9 5.85 9Z" fill="#1A9C69"/>
<path d="M12.1437 8.9874C12.8858 8.9874 13.4874 8.3858 13.4874 7.6437C13.4874 6.90159 12.8858 6.3 12.1437 6.3C11.4016 6.3 10.8 6.90159 10.8 7.6437C10.8 8.3858 11.4016 8.9874 12.1437 8.9874Z" fill="#1A9C69"/>
<path d="M9 14.4C12.6 14.4 13.5 10.8 13.5 10.8H4.5C4.5 10.8 5.4 14.4 9 14.4Z" fill="#1A9C69"/>
</svg>
